<svg width="430" height="430" viewBox="0 0 430 430" fill="none"
    xmlns="http://www.w3.org/2000/svg">
    <path d="M361.8 179.2L352.2 169.6C352.7 160.4 349.4 151.3 343.5 144.5C354.1 139.1 361.5 128.6 362.7 116.2C364.4 99.0998 353.1 82.7998 336.4 78.3998C331.1 76.9998 325.7 76.7998 320.4 77.8998C322.2 60.4998 310.5 44.2998 293 40.7998C279.3 38.0998 265.8 43.7998 258.1 54.9998C256.6 54.4998 255.1 54.0998 253.5 53.7998C237 50.4998 220.7 59.5998 214.8 75.2998C214.7 75.5998 214.5 75.8998 214.2 75.8998C192.1 78.7998 174.4 95.3998 170.1 117.2C167 133 171.2 149.1 181.8 161.3C182.6 162.2 183 163.3 182.9 164.3C181.7 164.5 180.6 165.1 179.7 165.9L173.4 172.2L166.6 125.6C165.8 119.8 163.4 114.6 160 110.2L173 51.1998C173.9 47.2998 172.1 43.2998 168.6 41.2998C165.1 39.2998 160.8 39.6998 157.8 42.3998L142.3 56.3998L121.2 42.4998C118.4 40.6998 114.8 41.3998 112.9 44.1998L98.9 64.9998L79.4 57.9998C75.6 56.5998 71.4 57.8998 69 60.9998C66.5 64.1998 66.4 68.4998 68.7 71.8998L102.6 121.2C101 126.7 100.9 132.6 102.3 138.3L109.5 167.1L108.3 165.9C106 163.6 102.2 163.6 99.8 165.9L86.5 179.2C85.4 180.3 84.7 181.8 84.7 183.4V383.6C84.7 386.9 87.4 389.6 90.7 389.6H277.5H357.6C360.9 389.6 363.6 386.9 363.6 383.6V183.4C363.6 181.8 362.9 180.3 361.8 179.2ZM283.5 185.9L290.9 178.6L300 187.7C302.3 190 306.1 190 308.5 187.7L311.6 184.6V339C311.5 339.1 311.4 339.1 311.3 339.3C310.3 340.3 309.7 341.7 309.6 343.1L283.6 369.1L283.5 185.9ZM316.5 353L341 377.5H292L316.5 353ZM323.5 343.1V184.5L326.6 187.6C328.9 189.9 332.7 189.9 335.1 187.6L344.2 178.5L351.5 185.8V371L323.5 343.1ZM182 119.3C185.3 102.5 198.9 89.7998 215.9 87.4998C220.6 86.8998 224.5 83.6998 226.2 79.1998C230 68.9998 240.6 63.0998 251.3 65.2998C253.6 65.7998 255.8 66.5998 257.8 67.6998C259.3 68.4998 261 68.6998 262.6 68.1998C264.2 67.6998 265.5 66.4998 266.2 64.9998C270.5 55.5998 280.6 50.3998 290.7 52.3998C302.7 54.7998 310.6 66.4998 308.2 78.4998V78.5998C307.5 81.9998 308.6 85.4998 311.2 87.7998C313.8 90.1998 317.4 90.9998 320.7 89.9998C324.8 88.7998 329.2 88.6998 333.4 89.8998C344.5 92.7998 351.9 103.6 350.8 114.9C349.7 125.9 341.4 134.6 330.5 136.1C328 136.4 325.9 138.4 325.4 140.9C324.9 143.4 326.1 146 328.3 147.3C335 151.1 339.4 158.1 340.1 165.7C340 165.8 340 165.8 339.9 165.9L330.8 175L321.7 165.9C319.4 163.6 315.6 163.6 313.2 165.9L304.1 175L300.5 171.4C302.8 170.2 304 167.6 303.5 165C302.9 161.7 299.7 159.6 296.5 160.3C287.6 162.1 279.2 165 271.4 169L268.3 165.9C266 163.6 262.2 163.6 259.8 165.9L257.6 168.1C259.3 161.8 261.2 155.6 263.2 149.6C265 147.6 273 139.8 289.8 137.9C293.1 137.5 295.5 134.6 295.1 131.3C294.7 128 291.8 125.6 288.5 126C281.5 126.8 275.6 128.5 270.8 130.5C278.1 114.4 284.3 106.2 284.5 105.9C286.5 103.3 286.1 99.4998 283.5 97.4998C280.9 95.4998 277.1 95.8998 275.1 98.5998C274.7 99.0998 267.2 108.9 258.8 128.1C255.7 121.7 250.9 114.5 243.4 108.6C240.8 106.5 237 107 235 109.6C232.9 112.2 233.4 116 236 118C247.9 127.4 251.2 141.4 252 145.7C249.4 153.3 247.1 161.2 245 169.3L241.7 166C241.4 165.7 241.1 165.5 240.8 165.2C235.4 153.2 229.2 144.3 222.1 138.8C219.5 136.8 215.7 137.2 213.7 139.8C211.7 142.4 212.1 146.2 214.7 148.2C220 152.4 225.1 159.7 229.6 169.5L224.1 175L215 165.9C212.7 163.6 208.9 163.6 206.5 165.9L197.4 175L193.4 171C196.2 165.3 195.3 158.4 190.9 153.3C182.8 143.9 179.5 131.5 182 119.3ZM122.6 169.7L117.6 149.6L128.7 147.4C132 146.8 134.1 143.6 133.4 140.3C132.7 137 129.6 134.9 126.3 135.6L114.6 138L113.9 135.3C112.5 129.7 113.4 123.9 116.5 119C119.6 114.1 124.4 110.8 130.1 109.7C131.4 109.4 132.8 109.3 134.2 109.3C144.5 109.3 153.4 117 154.9 127.2L160.4 164.8C158.1 163.5 155.2 163.8 153.2 165.8L144.1 174.9L135 165.8C132.7 163.5 128.9 163.4 126.5 165.8L122.6 169.7ZM99.2 77.7998C101.8 78.6998 104.7 77.7998 106.2 75.4998L119.5 55.7998L139.6 68.9998C141.9 70.4998 144.9 70.2998 146.9 68.3998L159.4 57.0998L149.8 101.3C145.1 98.6998 139.8 97.2998 134.2 97.2998C132 97.2998 129.9 97.4998 127.8 97.8998C120.3 99.3998 113.7 103.3 108.9 109.1L83.4 72.0998L99.2 77.7998ZM96.7 185.9L104 178.6L113.1 187.7C115.4 190 119.2 190 121.6 187.7L130.7 178.6L139.8 187.7C142.1 190 145.9 190 148.3 187.7L157.4 178.6L166.5 187.7C168.8 190 172.6 190 175 187.7L184.1 178.6L193.2 187.7C195.5 190 199.3 190 201.7 187.7L210.8 178.6L219.9 187.7C222.2 190 226 190 228.4 187.7L237.5 178.6L246.6 187.7C248.9 190 252.7 190 255.1 187.7L264.2 178.6L266.2 180.6L271.5 185.9V377.6H96.7V185.9Z" fill="url(#paint0_linear_2058_3643)"/>
    <defs>
        <linearGradient id="paint0_linear_2058_3643" x1="55.7527" y1="73.9865" x2="365.674" y2="383.908" gradientUnits="userSpaceOnUse">
            <stop stop-color="#CB5EEE"/>
            <stop offset="1" stop-color="#4BE1EC"/>
        </linearGradient>
    </defs>
</svg>
